<svg xmlns="http://www.w3.org/2000/svg" xmlns:xlink="http://www.w3.org/1999/xlink" width="500" zoomAndPan="magnify" viewBox="0 0 375 374.999991" height="500" preserveAspectRatio="xMidYMid meet" version="1.0"><defs><g><g id="id1"/></g></defs><rect x="-37.5" width="450" fill="rgb(100%, 100%, 100%)" y="-37.499999" height="449.999989" fill-opacity="1"/><rect x="-37.5" width="450" fill="rgb(100%, 100%, 100%)" y="-37.499999" height="449.999989" fill-opacity="1"/><rect x="-37.5" width="450" fill="rgb(100%, 100%, 100%)" y="-37.499999" height="449.999989" fill-opacity="1"/><g fill="rgb(10.978699%, 11.369324%, 12.939453%)" fill-opacity="1"><g transform="translate(100.967547, 180.44262)"><g><path d="M 21.90625 -25 C 22.125 -25 22.3125 -24.921875 22.46875 -24.765625 C 22.625 -24.609375 22.703125 -24.421875 22.703125 -24.203125 L 22.703125 -20.78125 C 22.703125 -20.5625 22.625 -20.378906 22.46875 -20.234375 C 22.3125 -20.085938 22.125 -20.015625 21.90625 -20.015625 L 15.203125 -20.015625 L 15.203125 -0.796875 C 15.203125 -0.578125 15.125 -0.390625 14.96875 -0.234375 C 14.8125 -0.078125 14.625 0 14.40625 0 L 10.96875 0 C 10.75 0 10.566406 -0.078125 10.421875 -0.234375 C 10.273438 -0.390625 10.203125 -0.578125 10.203125 -0.796875 L 10.203125 -20.015625 L 3.5 -20.015625 C 3.28125 -20.015625 3.09375 -20.085938 2.9375 -20.234375 C 2.78125 -20.378906 2.703125 -20.5625 2.703125 -20.78125 L 2.703125 -24.203125 C 2.703125 -24.421875 2.78125 -24.609375 2.9375 -24.765625 C 3.09375 -24.921875 3.28125 -25 3.5 -25 Z M 21.90625 -25 "/></g></g></g><g fill="rgb(10.978699%, 11.369324%, 12.939453%)" fill-opacity="1"><g transform="translate(124.554863, 180.44262)"><g><path d="M 22.703125 -20.78125 C 22.703125 -20.5625 22.625 -20.378906 22.46875 -20.234375 C 22.3125 -20.085938 22.125 -20.015625 21.90625 -20.015625 L 8.28125 -20.015625 L 8.28125 -14.984375 L 20.671875 -14.984375 C 20.890625 -14.984375 21.078125 -14.910156 21.234375 -14.765625 C 21.390625 -14.617188 21.46875 -14.4375 21.46875 -14.21875 L 21.46875 -10.796875 C 21.46875 -10.578125 21.390625 -10.382812 21.234375 -10.21875 C 21.078125 -10.0625 20.890625 -9.984375 20.671875 -9.984375 L 8.28125 -9.984375 L 8.28125 -0.796875 C 8.28125 -0.578125 8.195312 -0.390625 8.03125 -0.234375 C 7.875 -0.078125 7.6875 0 7.46875 0 L 4.046875 0 C 3.828125 0 3.640625 -0.078125 3.484375 -0.234375 C 3.328125 -0.390625 3.25 -0.578125 3.25 -0.796875 L 3.25 -24.203125 C 3.25 -24.421875 3.328125 -24.609375 3.484375 -24.765625 C 3.640625 -24.921875 3.828125 -25 4.046875 -25 L 21.90625 -25 C 22.125 -25 22.3125 -24.921875 22.46875 -24.765625 C 22.625 -24.609375 22.703125 -24.421875 22.703125 -24.203125 Z M 22.703125 -20.78125 "/></g></g></g><g fill="rgb(10.978699%, 11.369324%, 12.939453%)" fill-opacity="1"><g transform="translate(148.142179, 180.44262)"><g><path d="M 16.265625 -24.96875 C 17.160156 -24.96875 17.992188 -24.796875 18.765625 -24.453125 C 19.546875 -24.117188 20.226562 -23.660156 20.8125 -23.078125 C 21.394531 -22.492188 21.851562 -21.8125 22.1875 -21.03125 C 22.53125 -20.25 22.703125 -19.421875 22.703125 -18.546875 L 22.703125 -6.421875 C 22.703125 -5.546875 22.53125 -4.71875 22.1875 -3.9375 C 21.851562 -3.15625 21.394531 -2.472656 20.8125 -1.890625 C 20.226562 -1.304688 19.546875 -0.84375 18.765625 -0.5 C 17.992188 -0.164062 17.160156 0 16.265625 0 L 9.15625 0 C 8.25 0 7.40625 -0.164062 6.625 -0.5 C 5.851562 -0.84375 5.175781 -1.304688 4.59375 -1.890625 C 4.007812 -2.472656 3.546875 -3.15625 3.203125 -3.9375 C 2.867188 -4.71875 2.703125 -5.546875 2.703125 -6.421875 L 2.703125 -18.546875 C 2.703125 -19.421875 2.867188 -20.25 3.203125 -21.03125 C 3.546875 -21.8125 4.007812 -22.492188 4.59375 -23.078125 C 5.175781 -23.660156 5.851562 -24.117188 6.625 -24.453125 C 7.40625 -24.796875 8.25 -24.96875 9.15625 -24.96875 Z M 17.71875 -18.546875 C 17.71875 -18.960938 17.578125 -19.300781 17.296875 -19.5625 C 17.015625 -19.832031 16.671875 -19.96875 16.265625 -19.96875 L 9.15625 -19.96875 C 8.738281 -19.96875 8.390625 -19.832031 8.109375 -19.5625 C 7.828125 -19.300781 7.6875 -18.960938 7.6875 -18.546875 L 7.6875 -6.421875 C 7.6875 -6.003906 7.828125 -5.660156 8.109375 -5.390625 C 8.390625 -5.128906 8.738281 -5 9.15625 -5 L 16.265625 -5 C 16.671875 -5 17.015625 -5.128906 17.296875 -5.390625 C 17.578125 -5.660156 17.71875 -6.003906 17.71875 -6.421875 Z M 17.71875 -18.546875 "/></g></g></g><g fill="rgb(10.978699%, 11.369324%, 12.939453%)" fill-opacity="1"><g transform="translate(171.729498, 180.44262)"><g><path d="M 22.34375 -0.734375 C 22.4375 -0.535156 22.4375 -0.363281 22.34375 -0.21875 C 22.25 -0.0703125 22.09375 0 21.875 0 L 17.96875 0 C 17.75 0 17.535156 -0.0703125 17.328125 -0.21875 C 17.128906 -0.363281 16.976562 -0.535156 16.875 -0.734375 L 12.6875 -9.984375 L 7.734375 -9.984375 L 7.734375 -0.796875 C 7.734375 -0.578125 7.648438 -0.390625 7.484375 -0.234375 C 7.328125 -0.078125 7.140625 0 6.921875 0 L 3.5 0 C 3.28125 0 3.09375 -0.078125 2.9375 -0.234375 C 2.78125 -0.390625 2.703125 -0.578125 2.703125 -0.796875 L 2.703125 -24.203125 C 2.703125 -24.421875 2.78125 -24.609375 2.9375 -24.765625 C 3.09375 -24.921875 3.28125 -25 3.5 -25 L 16.265625 -25 C 17.160156 -25 17.992188 -24.828125 18.765625 -24.484375 C 19.546875 -24.148438 20.226562 -23.691406 20.8125 -23.109375 C 21.394531 -22.523438 21.851562 -21.84375 22.1875 -21.0625 C 22.53125 -20.289062 22.703125 -19.453125 22.703125 -18.546875 L 22.703125 -16.4375 C 22.703125 -15.707031 22.585938 -15.007812 22.359375 -14.34375 C 22.128906 -13.675781 21.804688 -13.066406 21.390625 -12.515625 C 20.984375 -11.972656 20.492188 -11.503906 19.921875 -11.109375 C 19.347656 -10.722656 18.722656 -10.4375 18.046875 -10.25 Z M 16.265625 -14.984375 C 16.671875 -14.984375 17.015625 -15.125 17.296875 -15.40625 C 17.578125 -15.6875 17.71875 -16.03125 17.71875 -16.4375 L 17.71875 -18.546875 C 17.71875 -18.960938 17.578125 -19.3125 17.296875 -19.59375 C 17.015625 -19.875 16.671875 -20.015625 16.265625 -20.015625 L 7.734375 -20.015625 L 7.734375 -14.984375 Z M 16.265625 -14.984375 "/></g></g></g><g fill="rgb(10.978699%, 11.369324%, 12.939453%)" fill-opacity="1"><g transform="translate(195.316811, 180.44262)"><g><path d="M 18.484375 -17.5 C 18.265625 -17.5 18.078125 -17.578125 17.921875 -17.734375 C 17.765625 -17.890625 17.6875 -18.078125 17.6875 -18.296875 L 17.6875 -18.546875 C 17.6875 -18.960938 17.550781 -19.3125 17.28125 -19.59375 C 17.007812 -19.875 16.671875 -20.015625 16.265625 -20.015625 L 9.109375 -20.015625 C 8.722656 -20.015625 8.390625 -19.875 8.109375 -19.59375 C 7.828125 -19.3125 7.6875 -18.960938 7.6875 -18.546875 L 7.6875 -16.4375 C 7.6875 -16.03125 7.828125 -15.6875 8.109375 -15.40625 C 8.390625 -15.125 8.722656 -14.984375 9.109375 -14.984375 L 16.265625 -14.984375 C 17.140625 -14.984375 17.960938 -14.8125 18.734375 -14.46875 C 19.515625 -14.132812 20.195312 -13.675781 20.78125 -13.09375 C 21.363281 -12.507812 21.820312 -11.828125 22.15625 -11.046875 C 22.5 -10.265625 22.671875 -9.4375 22.671875 -8.5625 L 22.671875 -6.453125 C 22.671875 -5.554688 22.5 -4.71875 22.15625 -3.9375 C 21.820312 -3.15625 21.363281 -2.472656 20.78125 -1.890625 C 20.195312 -1.304688 19.515625 -0.84375 18.734375 -0.5 C 17.960938 -0.164062 17.140625 0 16.265625 0 L 9.109375 0 C 8.234375 0 7.40625 -0.164062 6.625 -0.5 C 5.851562 -0.84375 5.175781 -1.304688 4.59375 -1.890625 C 4.007812 -2.472656 3.546875 -3.15625 3.203125 -3.9375 C 2.867188 -4.71875 2.703125 -5.554688 2.703125 -6.453125 L 2.703125 -6.703125 C 2.703125 -6.921875 2.78125 -7.109375 2.9375 -7.265625 C 3.09375 -7.429688 3.28125 -7.515625 3.5 -7.515625 L 6.890625 -7.515625 C 7.109375 -7.515625 7.296875 -7.429688 7.453125 -7.265625 C 7.609375 -7.109375 7.6875 -6.921875 7.6875 -6.703125 L 7.6875 -6.453125 C 7.6875 -6.035156 7.828125 -5.6875 8.109375 -5.40625 C 8.390625 -5.132812 8.722656 -5 9.109375 -5 L 16.265625 -5 C 16.671875 -5 17.007812 -5.132812 17.28125 -5.40625 C 17.550781 -5.6875 17.6875 -6.035156 17.6875 -6.453125 L 17.6875 -8.5625 C 17.6875 -8.976562 17.550781 -9.316406 17.28125 -9.578125 C 17.007812 -9.847656 16.671875 -9.984375 16.265625 -9.984375 L 9.109375 -9.984375 C 8.234375 -9.984375 7.40625 -10.15625 6.625 -10.5 C 5.851562 -10.84375 5.175781 -11.304688 4.59375 -11.890625 C 4.007812 -12.472656 3.546875 -13.15625 3.203125 -13.9375 C 2.867188 -14.726562 2.703125 -15.5625 2.703125 -16.4375 L 2.703125 -18.546875 C 2.703125 -19.453125 2.867188 -20.289062 3.203125 -21.0625 C 3.546875 -21.84375 4.007812 -22.523438 4.59375 -23.109375 C 5.175781 -23.691406 5.851562 -24.148438 6.625 -24.484375 C 7.40625 -24.828125 8.234375 -25 9.109375 -25 L 16.265625 -25 C 17.140625 -25 17.960938 -24.828125 18.734375 -24.484375 C 19.515625 -24.148438 20.195312 -23.691406 20.78125 -23.109375 C 21.363281 -22.523438 21.820312 -21.84375 22.15625 -21.0625 C 22.5 -20.289062 22.671875 -19.453125 22.671875 -18.546875 L 22.671875 -18.296875 C 22.671875 -18.078125 22.597656 -17.890625 22.453125 -17.734375 C 22.304688 -17.578125 22.125 -17.5 21.90625 -17.5 Z M 18.484375 -17.5 "/></g></g></g><g fill="rgb(10.978699%, 11.369324%, 12.939453%)" fill-opacity="1"><g transform="translate(218.904124, 180.44262)"><g><path d="M 21.90625 -25 C 22.125 -25 22.3125 -24.921875 22.46875 -24.765625 C 22.625 -24.609375 22.703125 -24.421875 22.703125 -24.203125 L 22.703125 -20.78125 C 22.703125 -20.5625 22.625 -20.378906 22.46875 -20.234375 C 22.3125 -20.085938 22.125 -20.015625 21.90625 -20.015625 L 15.203125 -20.015625 L 15.203125 -0.796875 C 15.203125 -0.578125 15.125 -0.390625 14.96875 -0.234375 C 14.8125 -0.078125 14.625 0 14.40625 0 L 10.96875 0 C 10.75 0 10.566406 -0.078125 10.421875 -0.234375 C 10.273438 -0.390625 10.203125 -0.578125 10.203125 -0.796875 L 10.203125 -20.015625 L 3.5 -20.015625 C 3.28125 -20.015625 3.09375 -20.085938 2.9375 -20.234375 C 2.78125 -20.378906 2.703125 -20.5625 2.703125 -20.78125 L 2.703125 -24.203125 C 2.703125 -24.421875 2.78125 -24.609375 2.9375 -24.765625 C 3.09375 -24.921875 3.28125 -25 3.5 -25 Z M 21.90625 -25 "/></g></g></g><g fill="rgb(10.978699%, 11.369324%, 12.939453%)" fill-opacity="1"><g transform="translate(242.491437, 180.44262)"><g><path d="M 22.3125 -20.78125 C 22.3125 -20.5625 22.238281 -20.378906 22.09375 -20.234375 C 21.945312 -20.085938 21.765625 -20.015625 21.546875 -20.015625 L 8.0625 -20.015625 L 8.0625 -14.984375 L 20.265625 -14.984375 C 20.484375 -14.984375 20.671875 -14.910156 20.828125 -14.765625 C 20.984375 -14.617188 21.0625 -14.4375 21.0625 -14.21875 L 21.0625 -10.796875 C 21.0625 -10.578125 20.984375 -10.382812 20.828125 -10.21875 C 20.671875 -10.0625 20.484375 -9.984375 20.265625 -9.984375 L 8.0625 -9.984375 L 8.0625 -5 L 21.546875 -5 C 21.765625 -5 21.945312 -4.914062 22.09375 -4.75 C 22.238281 -4.59375 22.3125 -4.40625 22.3125 -4.1875 L 22.3125 -0.796875 C 22.3125 -0.578125 22.238281 -0.390625 22.09375 -0.234375 C 21.945312 -0.078125 21.765625 0 21.546875 0 L 3.828125 0 C 3.609375 0 3.425781 -0.078125 3.28125 -0.234375 C 3.132812 -0.390625 3.0625 -0.578125 3.0625 -0.796875 L 3.0625 -24.203125 C 3.0625 -24.421875 3.132812 -24.609375 3.28125 -24.765625 C 3.425781 -24.921875 3.609375 -25 3.828125 -25 L 21.546875 -25 C 21.765625 -25 21.945312 -24.921875 22.09375 -24.765625 C 22.238281 -24.609375 22.3125 -24.421875 22.3125 -24.203125 Z M 22.3125 -20.78125 "/></g></g></g><g fill="rgb(10.978699%, 11.369324%, 12.939453%)" fill-opacity="1"><g transform="translate(266.042301, 180.44262)"><g><path d="M 22.34375 -0.734375 C 22.4375 -0.535156 22.4375 -0.363281 22.34375 -0.21875 C 22.25 -0.0703125 22.09375 0 21.875 0 L 17.96875 0 C 17.75 0 17.535156 -0.0703125 17.328125 -0.21875 C 17.128906 -0.363281 16.976562 -0.535156 16.875 -0.734375 L 12.6875 -9.984375 L 7.734375 -9.984375 L 7.734375 -0.796875 C 7.734375 -0.578125 7.648438 -0.390625 7.484375 -0.234375 C 7.328125 -0.078125 7.140625 0 6.921875 0 L 3.5 0 C 3.28125 0 3.09375 -0.078125 2.9375 -0.234375 C 2.78125 -0.390625 2.703125 -0.578125 2.703125 -0.796875 L 2.703125 -24.203125 C 2.703125 -24.421875 2.78125 -24.609375 2.9375 -24.765625 C 3.09375 -24.921875 3.28125 -25 3.5 -25 L 16.265625 -25 C 17.160156 -25 17.992188 -24.828125 18.765625 -24.484375 C 19.546875 -24.148438 20.226562 -23.691406 20.8125 -23.109375 C 21.394531 -22.523438 21.851562 -21.84375 22.1875 -21.0625 C 22.53125 -20.289062 22.703125 -19.453125 22.703125 -18.546875 L 22.703125 -16.4375 C 22.703125 -15.707031 22.585938 -15.007812 22.359375 -14.34375 C 22.128906 -13.675781 21.804688 -13.066406 21.390625 -12.515625 C 20.984375 -11.972656 20.492188 -11.503906 19.921875 -11.109375 C 19.347656 -10.722656 18.722656 -10.4375 18.046875 -10.25 Z M 16.265625 -14.984375 C 16.671875 -14.984375 17.015625 -15.125 17.296875 -15.40625 C 17.578125 -15.6875 17.71875 -16.03125 17.71875 -16.4375 L 17.71875 -18.546875 C 17.71875 -18.960938 17.578125 -19.3125 17.296875 -19.59375 C 17.015625 -19.875 16.671875 -20.015625 16.265625 -20.015625 L 7.734375 -20.015625 L 7.734375 -14.984375 Z M 16.265625 -14.984375 "/></g></g></g><g fill="rgb(10.978699%, 11.369324%, 12.939453%)" fill-opacity="1"><g transform="translate(100.967547, 216.442618)"><g><path d="M 21.90625 -25 C 22.125 -25 22.3125 -24.921875 22.46875 -24.765625 C 22.625 -24.609375 22.703125 -24.421875 22.703125 -24.203125 L 22.703125 -20.78125 C 22.703125 -20.5625 22.625 -20.378906 22.46875 -20.234375 C 22.3125 -20.085938 22.125 -20.015625 21.90625 -20.015625 L 15.203125 -20.015625 L 15.203125 -0.796875 C 15.203125 -0.578125 15.125 -0.390625 14.96875 -0.234375 C 14.8125 -0.078125 14.625 0 14.40625 0 L 10.96875 0 C 10.75 0 10.566406 -0.078125 10.421875 -0.234375 C 10.273438 -0.390625 10.203125 -0.578125 10.203125 -0.796875 L 10.203125 -20.015625 L 3.5 -20.015625 C 3.28125 -20.015625 3.09375 -20.085938 2.9375 -20.234375 C 2.78125 -20.378906 2.703125 -20.5625 2.703125 -20.78125 L 2.703125 -24.203125 C 2.703125 -24.421875 2.78125 -24.609375 2.9375 -24.765625 C 3.09375 -24.921875 3.28125 -25 3.5 -25 Z M 21.90625 -25 "/></g></g></g><g fill="rgb(10.978699%, 11.369324%, 12.939453%)" fill-opacity="1"><g transform="translate(124.554863, 216.442618)"><g><path d="M 22.3125 -20.78125 C 22.3125 -20.5625 22.238281 -20.378906 22.09375 -20.234375 C 21.945312 -20.085938 21.765625 -20.015625 21.546875 -20.015625 L 8.0625 -20.015625 L 8.0625 -14.984375 L 20.265625 -14.984375 C 20.484375 -14.984375 20.671875 -14.910156 20.828125 -14.765625 C 20.984375 -14.617188 21.0625 -14.4375 21.0625 -14.21875 L 21.0625 -10.796875 C 21.0625 -10.578125 20.984375 -10.382812 20.828125 -10.21875 C 20.671875 -10.0625 20.484375 -9.984375 20.265625 -9.984375 L 8.0625 -9.984375 L 8.0625 -5 L 21.546875 -5 C 21.765625 -5 21.945312 -4.914062 22.09375 -4.75 C 22.238281 -4.59375 22.3125 -4.40625 22.3125 -4.1875 L 22.3125 -0.796875 C 22.3125 -0.578125 22.238281 -0.390625 22.09375 -0.234375 C 21.945312 -0.078125 21.765625 0 21.546875 0 L 3.828125 0 C 3.609375 0 3.425781 -0.078125 3.28125 -0.234375 C 3.132812 -0.390625 3.0625 -0.578125 3.0625 -0.796875 L 3.0625 -24.203125 C 3.0625 -24.421875 3.132812 -24.609375 3.28125 -24.765625 C 3.425781 -24.921875 3.609375 -25 3.828125 -25 L 21.546875 -25 C 21.765625 -25 21.945312 -24.921875 22.09375 -24.765625 C 22.238281 -24.609375 22.3125 -24.421875 22.3125 -24.203125 Z M 22.3125 -20.78125 "/></g></g></g><g fill="rgb(10.978699%, 11.369324%, 12.939453%)" fill-opacity="1"><g transform="translate(148.105729, 216.442618)"><g><path d="M 18.515625 -17.5 C 18.296875 -17.5 18.109375 -17.578125 17.953125 -17.734375 C 17.796875 -17.890625 17.71875 -18.078125 17.71875 -18.296875 L 17.71875 -18.546875 C 17.71875 -18.960938 17.578125 -19.3125 17.296875 -19.59375 C 17.015625 -19.875 16.671875 -20.015625 16.265625 -20.015625 L 9.15625 -20.015625 C 8.738281 -20.015625 8.394531 -19.875 8.125 -19.59375 C 7.863281 -19.3125 7.734375 -18.960938 7.734375 -18.546875 L 7.734375 -6.453125 C 7.734375 -6.035156 7.863281 -5.6875 8.125 -5.40625 C 8.394531 -5.132812 8.738281 -5 9.15625 -5 L 16.265625 -5 C 16.671875 -5 17.015625 -5.132812 17.296875 -5.40625 C 17.578125 -5.6875 17.71875 -6.035156 17.71875 -6.453125 L 17.71875 -6.703125 C 17.71875 -6.921875 17.796875 -7.109375 17.953125 -7.265625 C 18.109375 -7.429688 18.296875 -7.515625 18.515625 -7.515625 L 21.90625 -7.515625 C 22.125 -7.515625 22.3125 -7.429688 22.46875 -7.265625 C 22.625 -7.109375 22.703125 -6.921875 22.703125 -6.703125 L 22.703125 -6.453125 C 22.703125 -5.554688 22.53125 -4.71875 22.1875 -3.9375 C 21.851562 -3.15625 21.394531 -2.472656 20.8125 -1.890625 C 20.226562 -1.304688 19.546875 -0.84375 18.765625 -0.5 C 17.992188 -0.164062 17.160156 0 16.265625 0 L 9.15625 0 C 8.28125 0 7.445312 -0.164062 6.65625 -0.5 C 5.863281 -0.84375 5.175781 -1.304688 4.59375 -1.890625 C 4.007812 -2.472656 3.546875 -3.15625 3.203125 -3.9375 C 2.867188 -4.71875 2.703125 -5.554688 2.703125 -6.453125 L 2.703125 -18.546875 C 2.703125 -19.453125 2.867188 -20.289062 3.203125 -21.0625 C 3.546875 -21.84375 4.007812 -22.523438 4.59375 -23.109375 C 5.175781 -23.691406 5.863281 -24.148438 6.65625 -24.484375 C 7.445312 -24.828125 8.28125 -25 9.15625 -25 L 16.265625 -25 C 17.160156 -25 17.992188 -24.828125 18.765625 -24.484375 C 19.546875 -24.148438 20.226562 -23.691406 20.8125 -23.109375 C 21.394531 -22.523438 21.851562 -21.84375 22.1875 -21.0625 C 22.53125 -20.289062 22.703125 -19.453125 22.703125 -18.546875 L 22.703125 -18.296875 C 22.703125 -18.078125 22.625 -17.890625 22.46875 -17.734375 C 22.3125 -17.578125 22.125 -17.5 21.90625 -17.5 Z M 18.515625 -17.5 "/></g></g></g><g fill="rgb(10.978699%, 11.369324%, 12.939453%)" fill-opacity="1"><g transform="translate(171.693048, 216.442618)"><g><path d="M 17.6875 -24.203125 C 17.6875 -24.421875 17.765625 -24.609375 17.921875 -24.765625 C 18.078125 -24.921875 18.265625 -25 18.484375 -25 L 21.90625 -25 C 22.125 -25 22.304688 -24.921875 22.453125 -24.765625 C 22.597656 -24.609375 22.671875 -24.421875 22.671875 -24.203125 L 22.671875 -0.796875 C 22.671875 -0.578125 22.597656 -0.390625 22.453125 -0.234375 C 22.304688 -0.078125 22.125 0 21.90625 0 L 18.484375 0 C 18.265625 0 18.078125 -0.078125 17.921875 -0.234375 C 17.765625 -0.390625 17.6875 -0.578125 17.6875 -0.796875 L 17.6875 -9.984375 L 7.6875 -9.984375 L 7.6875 -0.796875 C 7.6875 -0.578125 7.609375 -0.390625 7.453125 -0.234375 C 7.296875 -0.078125 7.109375 0 6.890625 0 L 3.46875 0 C 3.25 0 3.066406 -0.078125 2.921875 -0.234375 C 2.773438 -0.390625 2.703125 -0.578125 2.703125 -0.796875 L 2.703125 -24.203125 C 2.703125 -24.421875 2.773438 -24.609375 2.921875 -24.765625 C 3.066406 -24.921875 3.25 -25 3.46875 -25 L 6.890625 -25 C 7.109375 -25 7.296875 -24.921875 7.453125 -24.765625 C 7.609375 -24.609375 7.6875 -24.421875 7.6875 -24.203125 L 7.6875 -14.984375 L 17.6875 -14.984375 Z M 17.6875 -24.203125 "/></g></g></g><g fill="rgb(10.978699%, 11.369324%, 12.939453%)" fill-opacity="1"><g transform="translate(195.243911, 216.442618)"><g><path d="M 17.6875 -24.203125 C 17.6875 -24.421875 17.765625 -24.609375 17.921875 -24.765625 C 18.078125 -24.921875 18.265625 -25 18.484375 -25 L 21.90625 -25 C 22.125 -25 22.3125 -24.921875 22.46875 -24.765625 C 22.625 -24.609375 22.703125 -24.421875 22.703125 -24.203125 L 22.703125 -0.796875 C 22.703125 -0.578125 22.625 -0.390625 22.46875 -0.234375 C 22.3125 -0.078125 22.125 0 21.90625 0 L 18.484375 0 C 18.265625 0 18.078125 -0.078125 17.921875 -0.234375 C 17.765625 -0.390625 17.6875 -0.578125 17.6875 -0.796875 L 17.6875 -9.328125 L 7.6875 -18.296875 L 7.6875 -0.796875 C 7.6875 -0.578125 7.609375 -0.390625 7.453125 -0.234375 C 7.296875 -0.078125 7.109375 0 6.890625 0 L 3.5 0 C 3.28125 0 3.09375 -0.078125 2.9375 -0.234375 C 2.78125 -0.390625 2.703125 -0.578125 2.703125 -0.796875 L 2.703125 -24.203125 C 2.703125 -24.421875 2.78125 -24.609375 2.9375 -24.765625 C 3.09375 -24.921875 3.28125 -25 3.5 -25 L 6.890625 -25 C 7.109375 -25 7.347656 -24.941406 7.609375 -24.828125 C 7.878906 -24.722656 8.101562 -24.597656 8.28125 -24.453125 L 17.6875 -16.046875 Z M 17.6875 -24.203125 "/></g></g></g><g fill="rgb(10.978699%, 11.369324%, 12.939453%)" fill-opacity="1"><g transform="translate(218.831225, 216.442618)"><g><path d="M 16.265625 -24.96875 C 17.160156 -24.96875 17.992188 -24.796875 18.765625 -24.453125 C 19.546875 -24.117188 20.226562 -23.660156 20.8125 -23.078125 C 21.394531 -22.492188 21.851562 -21.8125 22.1875 -21.03125 C 22.53125 -20.25 22.703125 -19.421875 22.703125 -18.546875 L 22.703125 -6.421875 C 22.703125 -5.546875 22.53125 -4.71875 22.1875 -3.9375 C 21.851562 -3.15625 21.394531 -2.472656 20.8125 -1.890625 C 20.226562 -1.304688 19.546875 -0.84375 18.765625 -0.5 C 17.992188 -0.164062 17.160156 0 16.265625 0 L 9.15625 0 C 8.25 0 7.40625 -0.164062 6.625 -0.5 C 5.851562 -0.84375 5.175781 -1.304688 4.59375 -1.890625 C 4.007812 -2.472656 3.546875 -3.15625 3.203125 -3.9375 C 2.867188 -4.71875 2.703125 -5.546875 2.703125 -6.421875 L 2.703125 -18.546875 C 2.703125 -19.421875 2.867188 -20.25 3.203125 -21.03125 C 3.546875 -21.8125 4.007812 -22.492188 4.59375 -23.078125 C 5.175781 -23.660156 5.851562 -24.117188 6.625 -24.453125 C 7.40625 -24.796875 8.25 -24.96875 9.15625 -24.96875 Z M 17.71875 -18.546875 C 17.71875 -18.960938 17.578125 -19.300781 17.296875 -19.5625 C 17.015625 -19.832031 16.671875 -19.96875 16.265625 -19.96875 L 9.15625 -19.96875 C 8.738281 -19.96875 8.390625 -19.832031 8.109375 -19.5625 C 7.828125 -19.300781 7.6875 -18.960938 7.6875 -18.546875 L 7.6875 -6.421875 C 7.6875 -6.003906 7.828125 -5.660156 8.109375 -5.390625 C 8.390625 -5.128906 8.738281 -5 9.15625 -5 L 16.265625 -5 C 16.671875 -5 17.015625 -5.128906 17.296875 -5.390625 C 17.578125 -5.660156 17.71875 -6.003906 17.71875 -6.421875 Z M 17.71875 -18.546875 "/></g></g></g><g fill="rgb(10.978699%, 11.369324%, 12.939453%)" fill-opacity="1"><g transform="translate(242.418538, 216.442618)"><g><path d="M 21.609375 0 L 4.5625 0 C 4.34375 0 4.148438 -0.078125 3.984375 -0.234375 C 3.828125 -0.390625 3.75 -0.578125 3.75 -0.796875 L 3.75 -24.203125 C 3.75 -24.421875 3.828125 -24.609375 3.984375 -24.765625 C 4.148438 -24.921875 4.34375 -25 4.5625 -25 L 7.953125 -25 C 8.171875 -25 8.359375 -24.921875 8.515625 -24.765625 C 8.671875 -24.609375 8.75 -24.421875 8.75 -24.203125 L 8.75 -5 L 21.609375 -5 C 21.828125 -5 22.007812 -4.914062 22.15625 -4.75 C 22.300781 -4.59375 22.375 -4.40625 22.375 -4.1875 L 22.375 -0.796875 C 22.375 -0.578125 22.300781 -0.390625 22.15625 -0.234375 C 22.007812 -0.078125 21.828125 0 21.609375 0 Z M 21.609375 0 "/></g></g></g><g fill="rgb(10.978699%, 11.369324%, 12.939453%)" fill-opacity="1"><g transform="translate(266.005851, 216.442618)"><g><path d="M 16.265625 -24.96875 C 17.160156 -24.96875 17.992188 -24.796875 18.765625 -24.453125 C 19.546875 -24.117188 20.226562 -23.660156 20.8125 -23.078125 C 21.394531 -22.492188 21.851562 -21.8125 22.1875 -21.03125 C 22.53125 -20.25 22.703125 -19.421875 22.703125 -18.546875 L 22.703125 -6.421875 C 22.703125 -5.546875 22.53125 -4.71875 22.1875 -3.9375 C 21.851562 -3.15625 21.394531 -2.472656 20.8125 -1.890625 C 20.226562 -1.304688 19.546875 -0.84375 18.765625 -0.5 C 17.992188 -0.164062 17.160156 0 16.265625 0 L 9.15625 0 C 8.25 0 7.40625 -0.164062 6.625 -0.5 C 5.851562 -0.84375 5.175781 -1.304688 4.59375 -1.890625 C 4.007812 -2.472656 3.546875 -3.15625 3.203125 -3.9375 C 2.867188 -4.71875 2.703125 -5.546875 2.703125 -6.421875 L 2.703125 -18.546875 C 2.703125 -19.421875 2.867188 -20.25 3.203125 -21.03125 C 3.546875 -21.8125 4.007812 -22.492188 4.59375 -23.078125 C 5.175781 -23.660156 5.851562 -24.117188 6.625 -24.453125 C 7.40625 -24.796875 8.25 -24.96875 9.15625 -24.96875 Z M 17.71875 -18.546875 C 17.71875 -18.960938 17.578125 -19.300781 17.296875 -19.5625 C 17.015625 -19.832031 16.671875 -19.96875 16.265625 -19.96875 L 9.15625 -19.96875 C 8.738281 -19.96875 8.390625 -19.832031 8.109375 -19.5625 C 7.828125 -19.300781 7.6875 -18.960938 7.6875 -18.546875 L 7.6875 -6.421875 C 7.6875 -6.003906 7.828125 -5.660156 8.109375 -5.390625 C 8.390625 -5.128906 8.738281 -5 9.15625 -5 L 16.265625 -5 C 16.671875 -5 17.015625 -5.128906 17.296875 -5.390625 C 17.578125 -5.660156 17.71875 -6.003906 17.71875 -6.421875 Z M 17.71875 -18.546875 "/></g></g></g><g fill="rgb(10.978699%, 11.369324%, 12.939453%)" fill-opacity="1"><g transform="translate(289.593164, 216.442618)"><g><path d="M 17.6875 -18.546875 C 17.6875 -18.960938 17.546875 -19.3125 17.265625 -19.59375 C 16.984375 -19.875 16.648438 -20.015625 16.265625 -20.015625 L 9.109375 -20.015625 C 8.722656 -20.015625 8.390625 -19.875 8.109375 -19.59375 C 7.828125 -19.3125 7.6875 -18.960938 7.6875 -18.546875 L 7.6875 -6.453125 C 7.6875 -6.035156 7.828125 -5.6875 8.109375 -5.40625 C 8.390625 -5.132812 8.722656 -5 9.109375 -5 L 16.265625 -5 C 16.648438 -5 16.984375 -5.132812 17.265625 -5.40625 C 17.546875 -5.6875 17.6875 -6.035156 17.6875 -6.453125 L 17.6875 -9.984375 L 13.484375 -9.984375 C 13.265625 -9.984375 13.078125 -10.0625 12.921875 -10.21875 C 12.765625 -10.382812 12.6875 -10.578125 12.6875 -10.796875 L 12.6875 -14.21875 C 12.6875 -14.4375 12.765625 -14.617188 12.921875 -14.765625 C 13.078125 -14.910156 13.265625 -14.984375 13.484375 -14.984375 L 21.90625 -14.984375 C 22.125 -14.984375 22.304688 -14.910156 22.453125 -14.765625 C 22.597656 -14.617188 22.671875 -14.4375 22.671875 -14.21875 L 22.671875 -6.453125 C 22.671875 -5.554688 22.5 -4.71875 22.15625 -3.9375 C 21.820312 -3.15625 21.363281 -2.472656 20.78125 -1.890625 C 20.195312 -1.304688 19.515625 -0.84375 18.734375 -0.5 C 17.960938 -0.164062 17.140625 0 16.265625 0 L 9.109375 0 C 8.234375 0 7.40625 -0.164062 6.625 -0.5 C 5.851562 -0.84375 5.175781 -1.304688 4.59375 -1.890625 C 4.007812 -2.472656 3.546875 -3.15625 3.203125 -3.9375 C 2.867188 -4.71875 2.703125 -5.554688 2.703125 -6.453125 L 2.703125 -18.546875 C 2.703125 -19.453125 2.867188 -20.289062 3.203125 -21.0625 C 3.546875 -21.84375 4.007812 -22.523438 4.59375 -23.109375 C 5.175781 -23.691406 5.851562 -24.148438 6.625 -24.484375 C 7.40625 -24.828125 8.234375 -25 9.109375 -25 L 16.265625 -25 C 17.140625 -25 17.960938 -24.828125 18.734375 -24.484375 C 19.515625 -24.148438 20.195312 -23.691406 20.78125 -23.109375 C 21.363281 -22.523438 21.820312 -21.84375 22.15625 -21.0625 C 22.5 -20.289062 22.671875 -19.453125 22.671875 -18.546875 L 22.671875 -18.296875 C 22.671875 -18.078125 22.597656 -17.890625 22.453125 -17.734375 C 22.304688 -17.578125 22.125 -17.5 21.90625 -17.5 L 18.484375 -17.5 C 18.265625 -17.5 18.078125 -17.578125 17.921875 -17.734375 C 17.765625 -17.890625 17.6875 -18.078125 17.6875 -18.296875 Z M 17.6875 -18.546875 "/></g></g></g><g fill="rgb(10.978699%, 11.369324%, 12.939453%)" fill-opacity="1"><g transform="translate(313.144039, 216.442618)"><g><path d="M 21.90625 -25 C 22.125 -25 22.304688 -24.921875 22.453125 -24.765625 C 22.597656 -24.609375 22.671875 -24.421875 22.671875 -24.203125 L 22.671875 -18.59375 C 22.671875 -18.375 22.617188 -18.128906 22.515625 -17.859375 C 22.421875 -17.597656 22.289062 -17.378906 22.125 -17.203125 L 15.203125 -9.8125 L 15.203125 -0.765625 C 15.203125 -0.566406 15.125 -0.390625 14.96875 -0.234375 C 14.8125 -0.078125 14.625 0 14.40625 0 L 10.96875 0 C 10.75 0 10.5625 -0.078125 10.40625 -0.234375 C 10.25 -0.390625 10.171875 -0.566406 10.171875 -0.765625 L 10.171875 -9.8125 L 3.25 -17.203125 C 3.070312 -17.378906 2.9375 -17.597656 2.84375 -17.859375 C 2.75 -18.128906 2.703125 -18.375 2.703125 -18.59375 L 2.703125 -24.203125 C 2.703125 -24.421875 2.773438 -24.609375 2.921875 -24.765625 C 3.066406 -24.921875 3.25 -25 3.46875 -25 L 6.890625 -25 C 7.109375 -25 7.296875 -24.921875 7.453125 -24.765625 C 7.609375 -24.609375 7.6875 -24.421875 7.6875 -24.203125 L 7.6875 -20.5625 C 7.6875 -20.34375 7.738281 -20.097656 7.84375 -19.828125 C 7.957031 -19.554688 8.085938 -19.347656 8.234375 -19.203125 L 12.6875 -14.46875 L 17.140625 -19.203125 C 17.285156 -19.347656 17.410156 -19.554688 17.515625 -19.828125 C 17.628906 -20.097656 17.6875 -20.34375 17.6875 -20.5625 L 17.6875 -24.203125 C 17.6875 -24.421875 17.765625 -24.609375 17.921875 -24.765625 C 18.078125 -24.921875 18.265625 -25 18.484375 -25 Z M 21.90625 -25 "/></g></g></g><path fill="rgb(5.488586%, 67.83905%, 41.569519%)" d="M 57.207031 176.082031 L 38.871094 176.082031 C 38.3125 176.082031 37.851562 175.621094 37.851562 175.0625 L 37.851562 156.726562 C 37.851562 156.164062 38.3125 155.703125 38.871094 155.703125 L 57.195312 155.703125 C 57.753906 155.703125 58.214844 156.164062 58.214844 156.726562 L 58.214844 175.046875 C 58.230469 175.621094 57.765625 176.082031 57.207031 176.082031 " fill-opacity="1" fill-rule="nonzero"/><path fill="rgb(100%, 100%, 100%)" d="M 57.207031 156.011719 C 57.597656 156.011719 57.921875 156.332031 57.921875 156.726562 L 57.921875 175.0625 C 57.921875 175.453125 57.597656 175.773438 57.207031 175.773438 L 38.871094 175.773438 C 38.480469 175.773438 38.15625 175.453125 38.15625 175.0625 L 38.15625 156.726562 C 38.15625 156.332031 38.480469 156.011719 38.871094 156.011719 L 57.207031 156.011719 M 57.207031 155.355469 L 38.871094 155.355469 C 38.117188 155.355469 37.5 155.96875 37.5 156.726562 L 37.5 175.0625 C 37.5 175.816406 38.117188 176.433594 38.871094 176.433594 L 57.207031 176.433594 C 57.964844 176.433594 58.578125 175.816406 58.578125 175.0625 L 58.578125 156.726562 C 58.578125 155.96875 57.964844 155.355469 57.207031 155.355469 " fill-opacity="1" fill-rule="nonzero"/><path fill="rgb(5.488586%, 67.83905%, 41.569519%)" d="M 78.390625 176.082031 L 60.054688 176.082031 C 59.492188 176.082031 59.03125 175.621094 59.03125 175.0625 L 59.03125 156.726562 C 59.03125 156.164062 59.492188 155.703125 60.054688 155.703125 L 78.375 155.703125 C 78.933594 155.703125 79.398438 156.164062 79.398438 156.726562 L 79.398438 175.046875 C 79.410156 175.621094 78.949219 176.082031 78.390625 176.082031 " fill-opacity="1" fill-rule="nonzero"/><path fill="rgb(100%, 100%, 100%)" d="M 78.390625 156.011719 C 78.78125 156.011719 79.101562 156.332031 79.101562 156.726562 L 79.101562 175.0625 C 79.101562 175.453125 78.78125 175.773438 78.390625 175.773438 L 60.054688 175.773438 C 59.660156 175.773438 59.339844 175.453125 59.339844 175.0625 L 59.339844 156.726562 C 59.339844 156.332031 59.660156 156.011719 60.054688 156.011719 L 78.390625 156.011719 M 78.390625 155.355469 L 60.054688 155.355469 C 59.296875 155.355469 58.683594 155.96875 58.683594 156.726562 L 58.683594 175.0625 C 58.683594 175.816406 59.296875 176.433594 60.054688 176.433594 L 78.390625 176.433594 C 79.144531 176.433594 79.761719 175.816406 79.761719 175.0625 L 79.761719 156.726562 C 79.761719 155.96875 79.144531 155.355469 78.390625 155.355469 " fill-opacity="1" fill-rule="nonzero"/><path fill="rgb(5.488586%, 67.83905%, 41.569519%)" d="M 99.53125 176.082031 L 81.195312 176.082031 C 80.636719 176.082031 80.175781 175.621094 80.175781 175.0625 L 80.175781 156.726562 C 80.175781 156.164062 80.636719 155.703125 81.195312 155.703125 L 99.519531 155.703125 C 100.078125 155.703125 100.539062 156.164062 100.539062 156.726562 L 100.539062 175.046875 C 100.554688 175.621094 100.09375 176.082031 99.53125 176.082031 " fill-opacity="1" fill-rule="nonzero"/><path fill="rgb(100%, 100%, 100%)" d="M 99.53125 156.011719 C 99.925781 156.011719 100.246094 156.332031 100.246094 156.726562 L 100.246094 175.0625 C 100.246094 175.453125 99.925781 175.773438 99.53125 175.773438 L 81.195312 175.773438 C 80.804688 175.773438 80.480469 175.453125 80.480469 175.0625 L 80.480469 156.726562 C 80.480469 156.332031 80.804688 156.011719 81.195312 156.011719 L 99.53125 156.011719 M 99.53125 155.355469 L 81.195312 155.355469 C 80.441406 155.355469 79.824219 155.96875 79.824219 156.726562 L 79.824219 175.0625 C 79.824219 175.816406 80.441406 176.433594 81.195312 176.433594 L 99.53125 176.433594 C 100.289062 176.433594 100.902344 175.816406 100.902344 175.0625 L 100.902344 156.726562 C 100.902344 155.96875 100.289062 155.355469 99.53125 155.355469 " fill-opacity="1" fill-rule="nonzero"/><path fill="rgb(13.328552%, 34.899902%, 89.019775%)" d="M 78.390625 197.226562 L 60.054688 197.226562 C 59.492188 197.226562 59.03125 196.765625 59.03125 196.203125 L 59.03125 177.867188 C 59.03125 177.308594 59.492188 176.847656 60.054688 176.847656 L 78.375 176.847656 C 78.933594 176.847656 79.398438 177.308594 79.398438 177.867188 L 79.398438 196.191406 C 79.410156 196.765625 78.949219 197.226562 78.390625 197.226562 " fill-opacity="1" fill-rule="nonzero"/><path fill="rgb(100%, 100%, 100%)" d="M 78.390625 177.152344 C 78.78125 177.152344 79.101562 177.476562 79.101562 177.867188 L 79.101562 196.203125 C 79.101562 196.597656 78.78125 196.917969 78.390625 196.917969 L 60.054688 196.917969 C 59.660156 196.917969 59.339844 196.597656 59.339844 196.203125 L 59.339844 177.867188 C 59.339844 177.476562 59.660156 177.152344 60.054688 177.152344 L 78.390625 177.152344 M 78.390625 176.496094 L 60.054688 176.496094 C 59.296875 176.496094 58.683594 177.113281 58.683594 177.867188 L 58.683594 196.203125 C 58.683594 196.960938 59.296875 197.574219 60.054688 197.574219 L 78.390625 197.574219 C 79.144531 197.574219 79.761719 196.960938 79.761719 196.203125 L 79.761719 177.867188 C 79.761719 177.113281 79.144531 176.496094 78.390625 176.496094 " fill-opacity="1" fill-rule="nonzero"/><path fill="rgb(100%, 21.179199%, 21.179199%)" d="M 99.492188 197.207031 L 81.15625 197.207031 C 80.597656 197.207031 80.136719 196.746094 80.136719 196.183594 L 80.136719 177.847656 C 80.136719 177.289062 80.597656 176.828125 81.15625 176.828125 L 99.480469 176.828125 C 100.039062 176.828125 100.5 177.289062 100.5 177.847656 L 100.5 196.171875 C 100.515625 196.746094 100.054688 197.207031 99.492188 197.207031 " fill-opacity="1" fill-rule="nonzero"/><path fill="rgb(100%, 100%, 100%)" d="M 99.492188 177.132812 C 99.886719 177.132812 100.207031 177.457031 100.207031 177.847656 L 100.207031 196.183594 C 100.207031 196.578125 99.886719 196.898438 99.492188 196.898438 L 81.15625 196.898438 C 80.765625 196.898438 80.441406 196.578125 80.441406 196.183594 L 80.441406 177.847656 C 80.441406 177.457031 80.765625 177.132812 81.15625 177.132812 L 99.492188 177.132812 M 99.492188 176.476562 L 81.15625 176.476562 C 80.402344 176.476562 79.785156 177.09375 79.785156 177.847656 L 79.785156 196.183594 C 79.785156 196.941406 80.402344 197.554688 81.15625 197.554688 L 99.492188 197.554688 C 100.25 197.554688 100.863281 196.941406 100.863281 196.183594 L 100.863281 177.847656 C 100.863281 177.09375 100.25 176.476562 99.492188 176.476562 " fill-opacity="1" fill-rule="nonzero"/><path fill="rgb(13.328552%, 34.899902%, 89.019775%)" d="M 78.351562 218.367188 L 60.011719 218.367188 C 59.453125 218.367188 58.992188 217.90625 58.992188 217.347656 L 58.992188 199.011719 C 58.992188 198.449219 59.453125 197.988281 60.011719 197.988281 L 78.335938 197.988281 C 78.894531 197.988281 79.359375 198.449219 79.359375 199.011719 L 79.359375 217.332031 C 79.371094 217.90625 78.910156 218.367188 78.351562 218.367188 " fill-opacity="1" fill-rule="nonzero"/><path fill="rgb(100%, 100%, 100%)" d="M 78.351562 198.296875 C 78.742188 198.296875 79.0625 198.617188 79.0625 199.011719 L 79.0625 217.347656 C 79.0625 217.738281 78.742188 218.0625 78.351562 218.0625 L 60.011719 218.0625 C 59.621094 218.0625 59.300781 217.738281 59.300781 217.347656 L 59.300781 199.011719 C 59.300781 198.617188 59.621094 198.296875 60.011719 198.296875 L 78.351562 198.296875 M 78.351562 197.640625 L 60.011719 197.640625 C 59.257812 197.640625 58.644531 198.253906 58.644531 199.011719 L 58.644531 217.347656 C 58.644531 218.101562 59.257812 218.71875 60.011719 218.71875 L 78.351562 218.71875 C 79.105469 218.71875 79.722656 218.101562 79.722656 217.347656 L 79.722656 199.011719 C 79.722656 198.253906 79.105469 197.640625 78.351562 197.640625 " fill-opacity="1" fill-rule="nonzero"/></svg>