<svg xmlns="http://www.w3.org/2000/svg" xmlns:xlink="http://www.w3.org/1999/xlink" width="6912" zoomAndPan="magnify" viewBox="0 0 5184 1439.999935" height="1920" preserveAspectRatio="xMidYMid meet" version="1.0"><defs><g><g id="id1"/></g></defs><rect x="-518.4" width="6220.8" fill="rgb(100%, 100%, 100%)" y="-143.999994" height="1727.999922" fill-opacity="1"/><rect x="-518.4" width="6220.8" fill="rgb(100%, 100%, 100%)" y="-143.999994" height="1727.999922" fill-opacity="1"/><rect x="-518.4" width="6220.8" fill="rgb(100%, 100%, 100%)" y="-143.999994" height="1727.999922" fill-opacity="1"/><rect x="-518.4" width="6220.8" fill="rgb(100%, 100%, 100%)" y="-143.999994" height="1727.999922" fill-opacity="1"/><g fill="rgb(10.978699%, 11.369324%, 12.939453%)" fill-opacity="1"><g transform="translate(1179.790455, 609.839927)"><g><path d="M 357.578125 -408.15625 C 361.148438 -408.15625 364.222656 -406.863281 366.796875 -404.28125 C 369.378906 -401.707031 370.671875 -398.632812 370.671875 -395.0625 L 370.671875 -339.140625 C 370.671875 -335.566406 369.378906 -332.585938 366.796875 -330.203125 C 364.222656 -327.828125 361.148438 -326.640625 357.578125 -326.640625 L 248.109375 -326.640625 L 248.109375 -13.09375 C 248.109375 -9.519531 246.816406 -6.441406 244.234375 -3.859375 C 241.660156 -1.285156 238.585938 0 235.015625 0 L 179.09375 0 C 175.519531 0 172.539062 -1.285156 170.15625 -3.859375 C 167.78125 -6.441406 166.59375 -9.519531 166.59375 -13.09375 L 166.59375 -326.640625 L 57.125 -326.640625 C 53.550781 -326.640625 50.472656 -327.828125 47.890625 -330.203125 C 45.316406 -332.585938 44.03125 -335.566406 44.03125 -339.140625 L 44.03125 -395.0625 C 44.03125 -398.632812 45.316406 -401.707031 47.890625 -404.28125 C 50.472656 -406.863281 53.550781 -408.15625 57.125 -408.15625 Z M 357.578125 -408.15625 "/></g></g></g><g fill="rgb(10.978699%, 11.369324%, 12.939453%)" fill-opacity="1"><g transform="translate(1564.735447, 609.839927)"><g><path d="M 370.671875 -339.140625 C 370.671875 -335.566406 369.378906 -332.585938 366.796875 -330.203125 C 364.222656 -327.828125 361.148438 -326.640625 357.578125 -326.640625 L 135.0625 -326.640625 L 135.0625 -244.53125 L 337.359375 -244.53125 C 340.929688 -244.53125 344.003906 -243.34375 346.578125 -240.96875 C 349.160156 -238.59375 350.453125 -235.617188 350.453125 -232.046875 L 350.453125 -176.109375 C 350.453125 -172.546875 349.160156 -169.472656 346.578125 -166.890625 C 344.003906 -164.316406 340.929688 -163.03125 337.359375 -163.03125 L 135.0625 -163.03125 L 135.0625 -13.09375 C 135.0625 -9.519531 133.769531 -6.441406 131.1875 -3.859375 C 128.613281 -1.285156 125.539062 0 121.96875 0 L 66.046875 0 C 62.472656 0 59.394531 -1.285156 56.8125 -3.859375 C 54.238281 -6.441406 52.953125 -9.519531 52.953125 -13.09375 L 52.953125 -395.0625 C 52.953125 -398.632812 54.238281 -401.707031 56.8125 -404.28125 C 59.394531 -406.863281 62.472656 -408.15625 66.046875 -408.15625 L 357.578125 -408.15625 C 361.148438 -408.15625 364.222656 -406.863281 366.796875 -404.28125 C 369.378906 -401.707031 370.671875 -398.632812 370.671875 -395.0625 Z M 370.671875 -339.140625 "/></g></g></g><g fill="rgb(10.978699%, 11.369324%, 12.939453%)" fill-opacity="1"><g transform="translate(1949.680439, 609.839927)"><g><path d="M 265.359375 -407.5625 C 280.035156 -407.5625 293.71875 -404.785156 306.40625 -399.234375 C 319.101562 -393.679688 330.210938 -386.144531 339.734375 -376.625 C 349.253906 -367.101562 356.789062 -355.992188 362.34375 -343.296875 C 367.894531 -330.609375 370.671875 -317.125 370.671875 -302.84375 L 370.671875 -104.71875 C 370.671875 -90.4375 367.894531 -76.945312 362.34375 -64.25 C 356.789062 -51.5625 349.253906 -40.457031 339.734375 -30.9375 C 330.210938 -21.414062 319.101562 -13.878906 306.40625 -8.328125 C 293.71875 -2.773438 280.035156 0 265.359375 0 L 149.34375 0 C 134.664062 0 120.976562 -2.773438 108.28125 -8.328125 C 95.59375 -13.878906 84.488281 -21.414062 74.96875 -30.9375 C 65.445312 -40.457031 57.910156 -51.5625 52.359375 -64.25 C 46.804688 -76.945312 44.03125 -90.4375 44.03125 -104.71875 L 44.03125 -302.84375 C 44.03125 -317.125 46.804688 -330.609375 52.359375 -343.296875 C 57.910156 -355.992188 65.445312 -367.101562 74.96875 -376.625 C 84.488281 -386.144531 95.59375 -393.679688 108.28125 -399.234375 C 120.976562 -404.785156 134.664062 -407.5625 149.34375 -407.5625 Z M 289.15625 -302.84375 C 289.15625 -309.59375 286.875 -315.144531 282.3125 -319.5 C 277.757812 -323.863281 272.109375 -326.046875 265.359375 -326.046875 L 149.34375 -326.046875 C 142.59375 -326.046875 136.9375 -323.863281 132.375 -319.5 C 127.820312 -315.144531 125.546875 -309.59375 125.546875 -302.84375 L 125.546875 -104.71875 C 125.546875 -97.976562 127.820312 -92.425781 132.375 -88.0625 C 136.9375 -83.695312 142.59375 -81.515625 149.34375 -81.515625 L 265.359375 -81.515625 C 272.109375 -81.515625 277.757812 -83.695312 282.3125 -88.0625 C 286.875 -92.425781 289.15625 -97.976562 289.15625 -104.71875 Z M 289.15625 -302.84375 "/></g></g></g><g fill="rgb(10.978699%, 11.369324%, 12.939453%)" fill-opacity="1"><g transform="translate(2334.625468, 609.839927)"><g><path d="M 364.71875 -11.90625 C 366.3125 -8.726562 366.3125 -5.945312 364.71875 -3.5625 C 363.132812 -1.1875 360.554688 0 356.984375 0 L 293.328125 0 C 289.753906 0 286.28125 -1.1875 282.90625 -3.5625 C 279.539062 -5.945312 277.066406 -8.726562 275.484375 -11.90625 L 207.046875 -163.03125 L 126.140625 -163.03125 L 126.140625 -13.09375 C 126.140625 -9.519531 124.847656 -6.441406 122.265625 -3.859375 C 119.691406 -1.285156 116.617188 0 113.046875 0 L 57.125 0 C 53.550781 0 50.472656 -1.285156 47.890625 -3.859375 C 45.316406 -6.441406 44.03125 -9.519531 44.03125 -13.09375 L 44.03125 -395.0625 C 44.03125 -398.632812 45.316406 -401.707031 47.890625 -404.28125 C 50.472656 -406.863281 53.550781 -408.15625 57.125 -408.15625 L 265.359375 -408.15625 C 280.035156 -408.15625 293.71875 -405.378906 306.40625 -399.828125 C 319.101562 -394.273438 330.210938 -386.738281 339.734375 -377.21875 C 349.253906 -367.695312 356.789062 -356.585938 362.34375 -343.890625 C 367.894531 -331.203125 370.671875 -317.519531 370.671875 -302.84375 L 370.671875 -268.34375 C 370.671875 -256.4375 368.785156 -245.03125 365.015625 -234.125 C 361.253906 -223.21875 356 -213.300781 349.25 -204.375 C 342.507812 -195.445312 334.476562 -187.8125 325.15625 -181.46875 C 315.832031 -175.125 305.617188 -170.363281 294.515625 -167.1875 Z M 265.359375 -244.53125 C 272.109375 -244.53125 277.757812 -246.8125 282.3125 -251.375 C 286.875 -255.9375 289.15625 -261.59375 289.15625 -268.34375 L 289.15625 -302.84375 C 289.15625 -309.59375 286.875 -315.242188 282.3125 -319.796875 C 277.757812 -324.359375 272.109375 -326.640625 265.359375 -326.640625 L 126.140625 -326.640625 L 126.140625 -244.53125 Z M 265.359375 -244.53125 "/></g></g></g><g fill="rgb(10.978699%, 11.369324%, 12.939453%)" fill-opacity="1"><g transform="translate(2719.570411, 609.839927)"><g><path d="M 301.65625 -285.59375 C 298.082031 -285.59375 295.003906 -286.878906 292.421875 -289.453125 C 289.847656 -292.035156 288.5625 -295.113281 288.5625 -298.6875 L 288.5625 -302.84375 C 288.5625 -309.59375 286.378906 -315.242188 282.015625 -319.796875 C 277.660156 -324.359375 272.109375 -326.640625 265.359375 -326.640625 L 148.75 -326.640625 C 142.394531 -326.640625 136.9375 -324.359375 132.375 -319.796875 C 127.820312 -315.242188 125.546875 -309.59375 125.546875 -302.84375 L 125.546875 -268.34375 C 125.546875 -261.59375 127.820312 -255.9375 132.375 -251.375 C 136.9375 -246.8125 142.394531 -244.53125 148.75 -244.53125 L 265.359375 -244.53125 C 279.640625 -244.53125 293.125 -241.753906 305.8125 -236.203125 C 318.507812 -230.648438 329.617188 -223.113281 339.140625 -213.59375 C 348.660156 -204.070312 356.195312 -192.960938 361.75 -180.265625 C 367.300781 -167.578125 370.078125 -154.097656 370.078125 -139.828125 L 370.078125 -105.3125 C 370.078125 -90.632812 367.300781 -76.945312 361.75 -64.25 C 356.195312 -51.5625 348.660156 -40.457031 339.140625 -30.9375 C 329.617188 -21.414062 318.507812 -13.878906 305.8125 -8.328125 C 293.125 -2.773438 279.640625 0 265.359375 0 L 148.75 0 C 134.46875 0 120.976562 -2.773438 108.28125 -8.328125 C 95.59375 -13.878906 84.488281 -21.414062 74.96875 -30.9375 C 65.445312 -40.457031 57.910156 -51.5625 52.359375 -64.25 C 46.804688 -76.945312 44.03125 -90.632812 44.03125 -105.3125 L 44.03125 -109.484375 C 44.03125 -113.046875 45.316406 -116.113281 47.890625 -118.6875 C 50.472656 -121.269531 53.550781 -122.5625 57.125 -122.5625 L 112.453125 -122.5625 C 116.023438 -122.5625 119.097656 -121.269531 121.671875 -118.6875 C 124.253906 -116.113281 125.546875 -113.046875 125.546875 -109.484375 L 125.546875 -105.3125 C 125.546875 -98.570312 127.820312 -92.921875 132.375 -88.359375 C 136.9375 -83.796875 142.394531 -81.515625 148.75 -81.515625 L 265.359375 -81.515625 C 272.109375 -81.515625 277.660156 -83.796875 282.015625 -88.359375 C 286.378906 -92.921875 288.5625 -98.570312 288.5625 -105.3125 L 288.5625 -139.828125 C 288.5625 -146.566406 286.378906 -152.117188 282.015625 -156.484375 C 277.660156 -160.847656 272.109375 -163.03125 265.359375 -163.03125 L 148.75 -163.03125 C 134.46875 -163.03125 120.976562 -165.804688 108.28125 -171.359375 C 95.59375 -176.910156 84.488281 -184.445312 74.96875 -193.96875 C 65.445312 -203.488281 57.910156 -214.691406 52.359375 -227.578125 C 46.804688 -240.472656 44.03125 -254.0625 44.03125 -268.34375 L 44.03125 -302.84375 C 44.03125 -317.519531 46.804688 -331.203125 52.359375 -343.890625 C 57.910156 -356.585938 65.445312 -367.695312 74.96875 -377.21875 C 84.488281 -386.738281 95.59375 -394.273438 108.28125 -399.828125 C 120.976562 -405.378906 134.46875 -408.15625 148.75 -408.15625 L 265.359375 -408.15625 C 279.640625 -408.15625 293.125 -405.378906 305.8125 -399.828125 C 318.507812 -394.273438 329.617188 -386.738281 339.140625 -377.21875 C 348.660156 -367.695312 356.195312 -356.585938 361.75 -343.890625 C 367.300781 -331.203125 370.078125 -317.519531 370.078125 -302.84375 L 370.078125 -298.6875 C 370.078125 -295.113281 368.882812 -292.035156 366.5 -289.453125 C 364.125 -286.878906 361.148438 -285.59375 357.578125 -285.59375 Z M 301.65625 -285.59375 "/></g></g></g><g fill="rgb(10.978699%, 11.369324%, 12.939453%)" fill-opacity="1"><g transform="translate(3104.515355, 609.839927)"><g><path d="M 357.578125 -408.15625 C 361.148438 -408.15625 364.222656 -406.863281 366.796875 -404.28125 C 369.378906 -401.707031 370.671875 -398.632812 370.671875 -395.0625 L 370.671875 -339.140625 C 370.671875 -335.566406 369.378906 -332.585938 366.796875 -330.203125 C 364.222656 -327.828125 361.148438 -326.640625 357.578125 -326.640625 L 248.109375 -326.640625 L 248.109375 -13.09375 C 248.109375 -9.519531 246.816406 -6.441406 244.234375 -3.859375 C 241.660156 -1.285156 238.585938 0 235.015625 0 L 179.09375 0 C 175.519531 0 172.539062 -1.285156 170.15625 -3.859375 C 167.78125 -6.441406 166.59375 -9.519531 166.59375 -13.09375 L 166.59375 -326.640625 L 57.125 -326.640625 C 53.550781 -326.640625 50.472656 -327.828125 47.890625 -330.203125 C 45.316406 -332.585938 44.03125 -335.566406 44.03125 -339.140625 L 44.03125 -395.0625 C 44.03125 -398.632812 45.316406 -401.707031 47.890625 -404.28125 C 50.472656 -406.863281 53.550781 -408.15625 57.125 -408.15625 Z M 357.578125 -408.15625 "/></g></g></g><g fill="rgb(10.978699%, 11.369324%, 12.939453%)" fill-opacity="1"><g transform="translate(3489.460298, 609.839927)"><g><path d="M 364.125 -339.140625 C 364.125 -335.566406 362.929688 -332.585938 360.546875 -330.203125 C 358.171875 -327.828125 355.203125 -326.640625 351.640625 -326.640625 L 131.484375 -326.640625 L 131.484375 -244.53125 L 330.8125 -244.53125 C 334.382812 -244.53125 337.457031 -243.34375 340.03125 -240.96875 C 342.613281 -238.59375 343.90625 -235.617188 343.90625 -232.046875 L 343.90625 -176.109375 C 343.90625 -172.546875 342.613281 -169.472656 340.03125 -166.890625 C 337.457031 -164.316406 334.382812 -163.03125 330.8125 -163.03125 L 131.484375 -163.03125 L 131.484375 -81.515625 L 351.640625 -81.515625 C 355.203125 -81.515625 358.171875 -80.222656 360.546875 -77.640625 C 362.929688 -75.066406 364.125 -71.992188 364.125 -68.421875 L 364.125 -13.09375 C 364.125 -9.519531 362.929688 -6.441406 360.546875 -3.859375 C 358.171875 -1.285156 355.203125 0 351.640625 0 L 62.46875 0 C 58.90625 0 55.929688 -1.285156 53.546875 -3.859375 C 51.171875 -6.441406 49.984375 -9.519531 49.984375 -13.09375 L 49.984375 -395.0625 C 49.984375 -398.632812 51.171875 -401.707031 53.546875 -404.28125 C 55.929688 -406.863281 58.90625 -408.15625 62.46875 -408.15625 L 351.640625 -408.15625 C 355.203125 -408.15625 358.171875 -406.863281 360.546875 -404.28125 C 362.929688 -401.707031 364.125 -398.632812 364.125 -395.0625 Z M 364.125 -339.140625 "/></g></g></g><g fill="rgb(10.978699%, 11.369324%, 12.939453%)" fill-opacity="1"><g transform="translate(3873.81039, 609.839927)"><g><path d="M 364.71875 -11.90625 C 366.3125 -8.726562 366.3125 -5.945312 364.71875 -3.5625 C 363.132812 -1.1875 360.554688 0 356.984375 0 L 293.328125 0 C 289.753906 0 286.28125 -1.1875 282.90625 -3.5625 C 279.539062 -5.945312 277.066406 -8.726562 275.484375 -11.90625 L 207.046875 -163.03125 L 126.140625 -163.03125 L 126.140625 -13.09375 C 126.140625 -9.519531 124.847656 -6.441406 122.265625 -3.859375 C 119.691406 -1.285156 116.617188 0 113.046875 0 L 57.125 0 C 53.550781 0 50.472656 -1.285156 47.890625 -3.859375 C 45.316406 -6.441406 44.03125 -9.519531 44.03125 -13.09375 L 44.03125 -395.0625 C 44.03125 -398.632812 45.316406 -401.707031 47.890625 -404.28125 C 50.472656 -406.863281 53.550781 -408.15625 57.125 -408.15625 L 265.359375 -408.15625 C 280.035156 -408.15625 293.71875 -405.378906 306.40625 -399.828125 C 319.101562 -394.273438 330.210938 -386.738281 339.734375 -377.21875 C 349.253906 -367.695312 356.789062 -356.585938 362.34375 -343.890625 C 367.894531 -331.203125 370.671875 -317.519531 370.671875 -302.84375 L 370.671875 -268.34375 C 370.671875 -256.4375 368.785156 -245.03125 365.015625 -234.125 C 361.253906 -223.21875 356 -213.300781 349.25 -204.375 C 342.507812 -195.445312 334.476562 -187.8125 325.15625 -181.46875 C 315.832031 -175.125 305.617188 -170.363281 294.515625 -167.1875 Z M 265.359375 -244.53125 C 272.109375 -244.53125 277.757812 -246.8125 282.3125 -251.375 C 286.875 -255.9375 289.15625 -261.59375 289.15625 -268.34375 L 289.15625 -302.84375 C 289.15625 -309.59375 286.875 -315.242188 282.3125 -319.796875 C 277.757812 -324.359375 272.109375 -326.640625 265.359375 -326.640625 L 126.140625 -326.640625 L 126.140625 -244.53125 Z M 265.359375 -244.53125 "/></g></g></g><g fill="rgb(10.978699%, 11.369324%, 12.939453%)" fill-opacity="1"><g transform="translate(1179.790455, 1197.359876)"><g><path d="M 357.578125 -408.15625 C 361.148438 -408.15625 364.222656 -406.863281 366.796875 -404.28125 C 369.378906 -401.707031 370.671875 -398.632812 370.671875 -395.0625 L 370.671875 -339.140625 C 370.671875 -335.566406 369.378906 -332.585938 366.796875 -330.203125 C 364.222656 -327.828125 361.148438 -326.640625 357.578125 -326.640625 L 248.109375 -326.640625 L 248.109375 -13.09375 C 248.109375 -9.519531 246.816406 -6.441406 244.234375 -3.859375 C 241.660156 -1.285156 238.585938 0 235.015625 0 L 179.09375 0 C 175.519531 0 172.539062 -1.285156 170.15625 -3.859375 C 167.78125 -6.441406 166.59375 -9.519531 166.59375 -13.09375 L 166.59375 -326.640625 L 57.125 -326.640625 C 53.550781 -326.640625 50.472656 -327.828125 47.890625 -330.203125 C 45.316406 -332.585938 44.03125 -335.566406 44.03125 -339.140625 L 44.03125 -395.0625 C 44.03125 -398.632812 45.316406 -401.707031 47.890625 -404.28125 C 50.472656 -406.863281 53.550781 -408.15625 57.125 -408.15625 Z M 357.578125 -408.15625 "/></g></g></g><g fill="rgb(10.978699%, 11.369324%, 12.939453%)" fill-opacity="1"><g transform="translate(1564.735447, 1197.359876)"><g><path d="M 364.125 -339.140625 C 364.125 -335.566406 362.929688 -332.585938 360.546875 -330.203125 C 358.171875 -327.828125 355.203125 -326.640625 351.640625 -326.640625 L 131.484375 -326.640625 L 131.484375 -244.53125 L 330.8125 -244.53125 C 334.382812 -244.53125 337.457031 -243.34375 340.03125 -240.96875 C 342.613281 -238.59375 343.90625 -235.617188 343.90625 -232.046875 L 343.90625 -176.109375 C 343.90625 -172.546875 342.613281 -169.472656 340.03125 -166.890625 C 337.457031 -164.316406 334.382812 -163.03125 330.8125 -163.03125 L 131.484375 -163.03125 L 131.484375 -81.515625 L 351.640625 -81.515625 C 355.203125 -81.515625 358.171875 -80.222656 360.546875 -77.640625 C 362.929688 -75.066406 364.125 -71.992188 364.125 -68.421875 L 364.125 -13.09375 C 364.125 -9.519531 362.929688 -6.441406 360.546875 -3.859375 C 358.171875 -1.285156 355.203125 0 351.640625 0 L 62.46875 0 C 58.90625 0 55.929688 -1.285156 53.546875 -3.859375 C 51.171875 -6.441406 49.984375 -9.519531 49.984375 -13.09375 L 49.984375 -395.0625 C 49.984375 -398.632812 51.171875 -401.707031 53.546875 -404.28125 C 55.929688 -406.863281 58.90625 -408.15625 62.46875 -408.15625 L 351.640625 -408.15625 C 355.203125 -408.15625 358.171875 -406.863281 360.546875 -404.28125 C 362.929688 -401.707031 364.125 -398.632812 364.125 -395.0625 Z M 364.125 -339.140625 "/></g></g></g><g fill="rgb(10.978699%, 11.369324%, 12.939453%)" fill-opacity="1"><g transform="translate(1949.085575, 1197.359876)"><g><path d="M 302.25 -285.59375 C 298.675781 -285.59375 295.597656 -286.878906 293.015625 -289.453125 C 290.441406 -292.035156 289.15625 -295.113281 289.15625 -298.6875 L 289.15625 -302.84375 C 289.15625 -309.59375 286.875 -315.242188 282.3125 -319.796875 C 277.757812 -324.359375 272.109375 -326.640625 265.359375 -326.640625 L 149.34375 -326.640625 C 142.59375 -326.640625 137.035156 -324.359375 132.671875 -319.796875 C 128.316406 -315.242188 126.140625 -309.59375 126.140625 -302.84375 L 126.140625 -105.3125 C 126.140625 -98.570312 128.316406 -92.921875 132.671875 -88.359375 C 137.035156 -83.796875 142.59375 -81.515625 149.34375 -81.515625 L 265.359375 -81.515625 C 272.109375 -81.515625 277.757812 -83.796875 282.3125 -88.359375 C 286.875 -92.921875 289.15625 -98.570312 289.15625 -105.3125 L 289.15625 -109.484375 C 289.15625 -113.046875 290.441406 -116.113281 293.015625 -118.6875 C 295.597656 -121.269531 298.675781 -122.5625 302.25 -122.5625 L 357.578125 -122.5625 C 361.148438 -122.5625 364.222656 -121.269531 366.796875 -118.6875 C 369.378906 -116.113281 370.671875 -113.046875 370.671875 -109.484375 L 370.671875 -105.3125 C 370.671875 -90.632812 367.894531 -76.945312 362.34375 -64.25 C 356.789062 -51.5625 349.253906 -40.457031 339.734375 -30.9375 C 330.210938 -21.414062 319.101562 -13.878906 306.40625 -8.328125 C 293.71875 -2.773438 280.035156 0 265.359375 0 L 149.34375 0 C 135.0625 0 121.472656 -2.773438 108.578125 -8.328125 C 95.691406 -13.878906 84.488281 -21.414062 74.96875 -30.9375 C 65.445312 -40.457031 57.910156 -51.5625 52.359375 -64.25 C 46.804688 -76.945312 44.03125 -90.632812 44.03125 -105.3125 L 44.03125 -302.84375 C 44.03125 -317.519531 46.804688 -331.203125 52.359375 -343.890625 C 57.910156 -356.585938 65.445312 -367.695312 74.96875 -377.21875 C 84.488281 -386.738281 95.691406 -394.273438 108.578125 -399.828125 C 121.472656 -405.378906 135.0625 -408.15625 149.34375 -408.15625 L 265.359375 -408.15625 C 280.035156 -408.15625 293.71875 -405.378906 306.40625 -399.828125 C 319.101562 -394.273438 330.210938 -386.738281 339.734375 -377.21875 C 349.253906 -367.695312 356.789062 -356.585938 362.34375 -343.890625 C 367.894531 -331.203125 370.671875 -317.519531 370.671875 -302.84375 L 370.671875 -298.6875 C 370.671875 -295.113281 369.378906 -292.035156 366.796875 -289.453125 C 364.222656 -286.878906 361.148438 -285.59375 357.578125 -285.59375 Z M 302.25 -285.59375 "/></g></g></g><g fill="rgb(10.978699%, 11.369324%, 12.939453%)" fill-opacity="1"><g transform="translate(2334.030604, 1197.359876)"><g><path d="M 288.5625 -395.0625 C 288.5625 -398.632812 289.847656 -401.707031 292.421875 -404.28125 C 295.003906 -406.863281 298.082031 -408.15625 301.65625 -408.15625 L 357.578125 -408.15625 C 361.148438 -408.15625 364.125 -406.863281 366.5 -404.28125 C 368.882812 -401.707031 370.078125 -398.632812 370.078125 -395.0625 L 370.078125 -13.09375 C 370.078125 -9.519531 368.882812 -6.441406 366.5 -3.859375 C 364.125 -1.285156 361.148438 0 357.578125 0 L 301.65625 0 C 298.082031 0 295.003906 -1.285156 292.421875 -3.859375 C 289.847656 -6.441406 288.5625 -9.519531 288.5625 -13.09375 L 288.5625 -163.03125 L 125.546875 -163.03125 L 125.546875 -13.09375 C 125.546875 -9.519531 124.253906 -6.441406 121.671875 -3.859375 C 119.097656 -1.285156 116.023438 0 112.453125 0 L 56.53125 0 C 52.957031 0 49.976562 -1.285156 47.59375 -3.859375 C 45.21875 -6.441406 44.03125 -9.519531 44.03125 -13.09375 L 44.03125 -395.0625 C 44.03125 -398.632812 45.21875 -401.707031 47.59375 -404.28125 C 49.976562 -406.863281 52.957031 -408.15625 56.53125 -408.15625 L 112.453125 -408.15625 C 116.023438 -408.15625 119.097656 -406.863281 121.671875 -404.28125 C 124.253906 -401.707031 125.546875 -398.632812 125.546875 -395.0625 L 125.546875 -244.53125 L 288.5625 -244.53125 Z M 288.5625 -395.0625 "/></g></g></g><g fill="rgb(10.978699%, 11.369324%, 12.939453%)" fill-opacity="1"><g transform="translate(2718.380696, 1197.359876)"><g><path d="M 288.5625 -395.0625 C 288.5625 -398.632812 289.847656 -401.707031 292.421875 -404.28125 C 295.003906 -406.863281 298.082031 -408.15625 301.65625 -408.15625 L 357.578125 -408.15625 C 361.148438 -408.15625 364.222656 -406.863281 366.796875 -404.28125 C 369.378906 -401.707031 370.671875 -398.632812 370.671875 -395.0625 L 370.671875 -13.09375 C 370.671875 -9.519531 369.378906 -6.441406 366.796875 -3.859375 C 364.222656 -1.285156 361.148438 0 357.578125 0 L 301.65625 0 C 298.082031 0 295.003906 -1.285156 292.421875 -3.859375 C 289.847656 -6.441406 288.5625 -9.519531 288.5625 -13.09375 L 288.5625 -152.3125 L 125.546875 -298.6875 L 125.546875 -13.09375 C 125.546875 -9.519531 124.253906 -6.441406 121.671875 -3.859375 C 119.097656 -1.285156 116.023438 0 112.453125 0 L 57.125 0 C 53.550781 0 50.472656 -1.285156 47.890625 -3.859375 C 45.316406 -6.441406 44.03125 -9.519531 44.03125 -13.09375 L 44.03125 -395.0625 C 44.03125 -398.632812 45.316406 -401.707031 47.890625 -404.28125 C 50.472656 -406.863281 53.550781 -408.15625 57.125 -408.15625 L 112.453125 -408.15625 C 116.023438 -408.15625 119.988281 -407.257812 124.34375 -405.46875 C 128.707031 -403.6875 132.28125 -401.609375 135.0625 -399.234375 L 288.5625 -261.796875 Z M 288.5625 -395.0625 "/></g></g></g><g fill="rgb(10.978699%, 11.369324%, 12.939453%)" fill-opacity="1"><g transform="translate(3103.325639, 1197.359876)"><g><path d="M 265.359375 -407.5625 C 280.035156 -407.5625 293.71875 -404.785156 306.40625 -399.234375 C 319.101562 -393.679688 330.210938 -386.144531 339.734375 -376.625 C 349.253906 -367.101562 356.789062 -355.992188 362.34375 -343.296875 C 367.894531 -330.609375 370.671875 -317.125 370.671875 -302.84375 L 370.671875 -104.71875 C 370.671875 -90.4375 367.894531 -76.945312 362.34375 -64.25 C 356.789062 -51.5625 349.253906 -40.457031 339.734375 -30.9375 C 330.210938 -21.414062 319.101562 -13.878906 306.40625 -8.328125 C 293.71875 -2.773438 280.035156 0 265.359375 0 L 149.34375 0 C 134.664062 0 120.976562 -2.773438 108.28125 -8.328125 C 95.59375 -13.878906 84.488281 -21.414062 74.96875 -30.9375 C 65.445312 -40.457031 57.910156 -51.5625 52.359375 -64.25 C 46.804688 -76.945312 44.03125 -90.4375 44.03125 -104.71875 L 44.03125 -302.84375 C 44.03125 -317.125 46.804688 -330.609375 52.359375 -343.296875 C 57.910156 -355.992188 65.445312 -367.101562 74.96875 -376.625 C 84.488281 -386.144531 95.59375 -393.679688 108.28125 -399.234375 C 120.976562 -404.785156 134.664062 -407.5625 149.34375 -407.5625 Z M 289.15625 -302.84375 C 289.15625 -309.59375 286.875 -315.144531 282.3125 -319.5 C 277.757812 -323.863281 272.109375 -326.046875 265.359375 -326.046875 L 149.34375 -326.046875 C 142.59375 -326.046875 136.9375 -323.863281 132.375 -319.5 C 127.820312 -315.144531 125.546875 -309.59375 125.546875 -302.84375 L 125.546875 -104.71875 C 125.546875 -97.976562 127.820312 -92.425781 132.375 -88.0625 C 136.9375 -83.695312 142.59375 -81.515625 149.34375 -81.515625 L 265.359375 -81.515625 C 272.109375 -81.515625 277.757812 -83.695312 282.3125 -88.0625 C 286.875 -92.425781 289.15625 -97.976562 289.15625 -104.71875 Z M 289.15625 -302.84375 "/></g></g></g><g fill="rgb(10.978699%, 11.369324%, 12.939453%)" fill-opacity="1"><g transform="translate(3488.270582, 1197.359876)"><g><path d="M 352.828125 0 L 74.375 0 C 70.800781 0 67.722656 -1.285156 65.140625 -3.859375 C 62.566406 -6.441406 61.28125 -9.519531 61.28125 -13.09375 L 61.28125 -395.0625 C 61.28125 -398.632812 62.566406 -401.707031 65.140625 -404.28125 C 67.722656 -406.863281 70.800781 -408.15625 74.375 -408.15625 L 129.703125 -408.15625 C 133.273438 -408.15625 136.347656 -406.863281 138.921875 -404.28125 C 141.503906 -401.707031 142.796875 -398.632812 142.796875 -395.0625 L 142.796875 -81.515625 L 352.828125 -81.515625 C 356.398438 -81.515625 359.375 -80.222656 361.75 -77.640625 C 364.132812 -75.066406 365.328125 -71.992188 365.328125 -68.421875 L 365.328125 -13.09375 C 365.328125 -9.519531 364.132812 -6.441406 361.75 -3.859375 C 359.375 -1.285156 356.398438 0 352.828125 0 Z M 352.828125 0 "/></g></g></g><g fill="rgb(10.978699%, 11.369324%, 12.939453%)" fill-opacity="1"><g transform="translate(3873.215526, 1197.359876)"><g><path d="M 265.359375 -407.5625 C 280.035156 -407.5625 293.71875 -404.785156 306.40625 -399.234375 C 319.101562 -393.679688 330.210938 -386.144531 339.734375 -376.625 C 349.253906 -367.101562 356.789062 -355.992188 362.34375 -343.296875 C 367.894531 -330.609375 370.671875 -317.125 370.671875 -302.84375 L 370.671875 -104.71875 C 370.671875 -90.4375 367.894531 -76.945312 362.34375 -64.25 C 356.789062 -51.5625 349.253906 -40.457031 339.734375 -30.9375 C 330.210938 -21.414062 319.101562 -13.878906 306.40625 -8.328125 C 293.71875 -2.773438 280.035156 0 265.359375 0 L 149.34375 0 C 134.664062 0 120.976562 -2.773438 108.28125 -8.328125 C 95.59375 -13.878906 84.488281 -21.414062 74.96875 -30.9375 C 65.445312 -40.457031 57.910156 -51.5625 52.359375 -64.25 C 46.804688 -76.945312 44.03125 -90.4375 44.03125 -104.71875 L 44.03125 -302.84375 C 44.03125 -317.125 46.804688 -330.609375 52.359375 -343.296875 C 57.910156 -355.992188 65.445312 -367.101562 74.96875 -376.625 C 84.488281 -386.144531 95.59375 -393.679688 108.28125 -399.234375 C 120.976562 -404.785156 134.664062 -407.5625 149.34375 -407.5625 Z M 289.15625 -302.84375 C 289.15625 -309.59375 286.875 -315.144531 282.3125 -319.5 C 277.757812 -323.863281 272.109375 -326.046875 265.359375 -326.046875 L 149.34375 -326.046875 C 142.59375 -326.046875 136.9375 -323.863281 132.375 -319.5 C 127.820312 -315.144531 125.546875 -309.59375 125.546875 -302.84375 L 125.546875 -104.71875 C 125.546875 -97.976562 127.820312 -92.425781 132.375 -88.0625 C 136.9375 -83.695312 142.59375 -81.515625 149.34375 -81.515625 L 265.359375 -81.515625 C 272.109375 -81.515625 277.757812 -83.695312 282.3125 -88.0625 C 286.875 -92.425781 289.15625 -97.976562 289.15625 -104.71875 Z M 289.15625 -302.84375 "/></g></g></g><g fill="rgb(10.978699%, 11.369324%, 12.939453%)" fill-opacity="1"><g transform="translate(4258.160469, 1197.359876)"><g><path d="M 288.5625 -302.84375 C 288.5625 -309.59375 286.28125 -315.242188 281.71875 -319.796875 C 277.15625 -324.359375 271.703125 -326.640625 265.359375 -326.640625 L 148.75 -326.640625 C 142.394531 -326.640625 136.9375 -324.359375 132.375 -319.796875 C 127.820312 -315.242188 125.546875 -309.59375 125.546875 -302.84375 L 125.546875 -105.3125 C 125.546875 -98.570312 127.820312 -92.921875 132.375 -88.359375 C 136.9375 -83.796875 142.394531 -81.515625 148.75 -81.515625 L 265.359375 -81.515625 C 271.703125 -81.515625 277.15625 -83.796875 281.71875 -88.359375 C 286.28125 -92.921875 288.5625 -98.570312 288.5625 -105.3125 L 288.5625 -163.03125 L 220.140625 -163.03125 C 216.578125 -163.03125 213.503906 -164.316406 210.921875 -166.890625 C 208.335938 -169.472656 207.046875 -172.546875 207.046875 -176.109375 L 207.046875 -232.046875 C 207.046875 -235.617188 208.335938 -238.59375 210.921875 -240.96875 C 213.503906 -243.34375 216.578125 -244.53125 220.140625 -244.53125 L 357.578125 -244.53125 C 361.148438 -244.53125 364.125 -243.34375 366.5 -240.96875 C 368.882812 -238.59375 370.078125 -235.617188 370.078125 -232.046875 L 370.078125 -105.3125 C 370.078125 -90.632812 367.300781 -76.945312 361.75 -64.25 C 356.195312 -51.5625 348.660156 -40.457031 339.140625 -30.9375 C 329.617188 -21.414062 318.507812 -13.878906 305.8125 -8.328125 C 293.125 -2.773438 279.640625 0 265.359375 0 L 148.75 0 C 134.46875 0 120.976562 -2.773438 108.28125 -8.328125 C 95.59375 -13.878906 84.488281 -21.414062 74.96875 -30.9375 C 65.445312 -40.457031 57.910156 -51.5625 52.359375 -64.25 C 46.804688 -76.945312 44.03125 -90.632812 44.03125 -105.3125 L 44.03125 -302.84375 C 44.03125 -317.519531 46.804688 -331.203125 52.359375 -343.890625 C 57.910156 -356.585938 65.445312 -367.695312 74.96875 -377.21875 C 84.488281 -386.738281 95.59375 -394.273438 108.28125 -399.828125 C 120.976562 -405.378906 134.46875 -408.15625 148.75 -408.15625 L 265.359375 -408.15625 C 279.640625 -408.15625 293.125 -405.378906 305.8125 -399.828125 C 318.507812 -394.273438 329.617188 -386.738281 339.140625 -377.21875 C 348.660156 -367.695312 356.195312 -356.585938 361.75 -343.890625 C 367.300781 -331.203125 370.078125 -317.519531 370.078125 -302.84375 L 370.078125 -298.6875 C 370.078125 -295.113281 368.882812 -292.035156 366.5 -289.453125 C 364.125 -286.878906 361.148438 -285.59375 357.578125 -285.59375 L 301.65625 -285.59375 C 298.082031 -285.59375 295.003906 -286.878906 292.421875 -289.453125 C 289.847656 -292.035156 288.5625 -295.113281 288.5625 -298.6875 Z M 288.5625 -302.84375 "/></g></g></g><g fill="rgb(10.978699%, 11.369324%, 12.939453%)" fill-opacity="1"><g transform="translate(4642.510744, 1197.359876)"><g><path d="M 357.578125 -408.15625 C 361.148438 -408.15625 364.125 -406.863281 366.5 -404.28125 C 368.882812 -401.707031 370.078125 -398.632812 370.078125 -395.0625 L 370.078125 -303.4375 C 370.078125 -299.875 369.285156 -295.910156 367.703125 -291.546875 C 366.117188 -287.179688 363.9375 -283.609375 361.15625 -280.828125 L 248.109375 -160.046875 L 248.109375 -12.5 C 248.109375 -9.320312 246.816406 -6.441406 244.234375 -3.859375 C 241.660156 -1.285156 238.585938 0 235.015625 0 L 179.09375 0 C 175.519531 0 172.441406 -1.285156 169.859375 -3.859375 C 167.285156 -6.441406 166 -9.320312 166 -12.5 L 166 -160.046875 L 52.953125 -280.828125 C 50.171875 -283.609375 47.988281 -287.179688 46.40625 -291.546875 C 44.820312 -295.910156 44.03125 -299.875 44.03125 -303.4375 L 44.03125 -395.0625 C 44.03125 -398.632812 45.21875 -401.707031 47.59375 -404.28125 C 49.976562 -406.863281 52.957031 -408.15625 56.53125 -408.15625 L 112.453125 -408.15625 C 116.023438 -408.15625 119.097656 -406.863281 121.671875 -404.28125 C 124.253906 -401.707031 125.546875 -398.632812 125.546875 -395.0625 L 125.546875 -335.578125 C 125.546875 -332.003906 126.4375 -328.035156 128.21875 -323.671875 C 130 -319.304688 132.082031 -315.9375 134.46875 -313.5625 L 207.046875 -236.203125 L 279.640625 -313.5625 C 282.023438 -315.9375 284.109375 -319.304688 285.890625 -323.671875 C 287.671875 -328.035156 288.5625 -332.003906 288.5625 -335.578125 L 288.5625 -395.0625 C 288.5625 -398.632812 289.847656 -401.707031 292.421875 -404.28125 C 295.003906 -406.863281 298.082031 -408.15625 301.65625 -408.15625 Z M 357.578125 -408.15625 "/></g></g></g><path fill="rgb(5.488586%, 67.83905%, 41.569519%)" d="M 465.632812 538.691406 L 166.371094 538.691406 C 157.238281 538.691406 149.707031 531.160156 149.707031 522.027344 L 149.707031 222.765625 C 149.707031 213.636719 157.238281 206.101562 166.371094 206.101562 L 465.402344 206.101562 C 474.535156 206.101562 482.066406 213.636719 482.066406 222.765625 L 482.066406 521.800781 C 482.296875 531.160156 474.761719 538.691406 465.632812 538.691406 " fill-opacity="1" fill-rule="nonzero"/><path fill="rgb(100%, 100%, 100%)" d="M 465.632812 211.125 C 472.023438 211.125 477.273438 216.375 477.273438 222.765625 L 477.273438 522.027344 C 477.273438 528.417969 472.023438 533.667969 465.632812 533.667969 L 166.371094 533.667969 C 159.980469 533.667969 154.730469 528.417969 154.730469 522.027344 L 154.730469 222.765625 C 154.730469 216.375 159.980469 211.125 166.371094 211.125 L 465.632812 211.125 M 465.632812 200.394531 L 166.371094 200.394531 C 154.042969 200.394531 144 210.441406 144 222.765625 L 144 522.027344 C 144 534.355469 154.042969 544.398438 166.371094 544.398438 L 465.632812 544.398438 C 477.957031 544.398438 488.003906 534.355469 488.003906 522.027344 L 488.003906 222.765625 C 488.003906 210.441406 477.957031 200.394531 465.632812 200.394531 " fill-opacity="1" fill-rule="nonzero"/><path fill="rgb(5.488586%, 67.83905%, 41.569519%)" d="M 811.324219 538.691406 L 512.0625 538.691406 C 502.929688 538.691406 495.398438 531.160156 495.398438 522.027344 L 495.398438 222.765625 C 495.398438 213.636719 502.929688 206.101562 512.0625 206.101562 L 811.09375 206.101562 C 820.226562 206.101562 827.757812 213.636719 827.757812 222.765625 L 827.757812 521.800781 C 827.984375 531.160156 820.453125 538.691406 811.324219 538.691406 " fill-opacity="1" fill-rule="nonzero"/><path fill="rgb(100%, 100%, 100%)" d="M 811.324219 211.125 C 817.714844 211.125 822.964844 216.375 822.964844 222.765625 L 822.964844 522.027344 C 822.964844 528.417969 817.714844 533.667969 811.324219 533.667969 L 512.0625 533.667969 C 505.667969 533.667969 500.417969 528.417969 500.417969 522.027344 L 500.417969 222.765625 C 500.417969 216.375 505.667969 211.125 512.0625 211.125 L 811.324219 211.125 M 811.324219 200.394531 L 512.0625 200.394531 C 499.734375 200.394531 489.691406 210.441406 489.691406 222.765625 L 489.691406 522.027344 C 489.691406 534.355469 499.734375 544.398438 512.0625 544.398438 L 811.324219 544.398438 C 823.648438 544.398438 833.691406 534.355469 833.691406 522.027344 L 833.691406 222.765625 C 833.691406 210.441406 823.648438 200.394531 811.324219 200.394531 " fill-opacity="1" fill-rule="nonzero"/><path fill="rgb(5.488586%, 67.83905%, 41.569519%)" d="M 1156.371094 538.691406 L 857.109375 538.691406 C 847.980469 538.691406 840.445312 531.160156 840.445312 522.027344 L 840.445312 222.765625 C 840.445312 213.636719 847.980469 206.101562 857.109375 206.101562 L 1156.144531 206.101562 C 1165.273438 206.101562 1172.808594 213.636719 1172.808594 222.765625 L 1172.808594 521.800781 C 1173.035156 531.160156 1165.503906 538.691406 1156.371094 538.691406 " fill-opacity="1" fill-rule="nonzero"/><path fill="rgb(100%, 100%, 100%)" d="M 1156.371094 211.125 C 1162.765625 211.125 1168.015625 216.375 1168.015625 222.765625 L 1168.015625 522.027344 C 1168.015625 528.417969 1162.765625 533.667969 1156.371094 533.667969 L 857.109375 533.667969 C 850.71875 533.667969 845.46875 528.417969 845.46875 522.027344 L 845.46875 222.765625 C 845.46875 216.375 850.71875 211.125 857.109375 211.125 L 1156.371094 211.125 M 1156.371094 200.394531 L 857.109375 200.394531 C 844.785156 200.394531 834.742188 210.441406 834.742188 222.765625 L 834.742188 522.027344 C 834.742188 534.355469 844.785156 544.398438 857.109375 544.398438 L 1156.371094 544.398438 C 1168.699219 544.398438 1178.742188 534.355469 1178.742188 522.027344 L 1178.742188 222.765625 C 1178.742188 210.441406 1168.699219 200.394531 1156.371094 200.394531 " fill-opacity="1" fill-rule="nonzero"/><path fill="rgb(13.328552%, 34.899902%, 89.019775%)" d="M 811.324219 883.742188 L 512.0625 883.742188 C 502.929688 883.742188 495.398438 876.207031 495.398438 867.078125 L 495.398438 567.816406 C 495.398438 558.683594 502.929688 551.152344 512.0625 551.152344 L 811.09375 551.152344 C 820.226562 551.152344 827.757812 558.683594 827.757812 567.816406 L 827.757812 866.847656 C 827.984375 876.207031 820.453125 883.742188 811.324219 883.742188 " fill-opacity="1" fill-rule="nonzero"/><path fill="rgb(100%, 100%, 100%)" d="M 811.324219 556.175781 C 817.714844 556.175781 822.964844 561.425781 822.964844 567.816406 L 822.964844 867.078125 C 822.964844 873.46875 817.714844 878.71875 811.324219 878.71875 L 512.0625 878.71875 C 505.667969 878.71875 500.417969 873.46875 500.417969 867.078125 L 500.417969 567.816406 C 500.417969 561.425781 505.667969 556.175781 512.0625 556.175781 L 811.324219 556.175781 M 811.324219 545.445312 L 512.0625 545.445312 C 499.734375 545.445312 489.691406 555.488281 489.691406 567.816406 L 489.691406 867.078125 C 489.691406 879.402344 499.734375 889.449219 512.0625 889.449219 L 811.324219 889.449219 C 823.648438 889.449219 833.691406 879.402344 833.691406 867.078125 L 833.691406 567.816406 C 833.691406 555.488281 823.648438 545.445312 811.324219 545.445312 " fill-opacity="1" fill-rule="nonzero"/><path fill="rgb(100%, 21.179199%, 21.179199%)" d="M 1155.730469 883.421875 L 856.46875 883.421875 C 847.339844 883.421875 839.808594 875.886719 839.808594 866.757812 L 839.808594 567.496094 C 839.808594 558.363281 847.339844 550.832031 856.46875 550.832031 L 1155.503906 550.832031 C 1164.632812 550.832031 1172.167969 558.363281 1172.167969 567.496094 L 1172.167969 866.527344 C 1172.394531 875.886719 1164.863281 883.421875 1155.730469 883.421875 " fill-opacity="1" fill-rule="nonzero"/><path fill="rgb(100%, 100%, 100%)" d="M 1155.730469 555.855469 C 1162.125 555.855469 1167.375 561.105469 1167.375 567.496094 L 1167.375 866.757812 C 1167.375 873.148438 1162.125 878.398438 1155.730469 878.398438 L 856.46875 878.398438 C 850.078125 878.398438 844.828125 873.148438 844.828125 866.757812 L 844.828125 567.496094 C 844.828125 561.105469 850.078125 555.855469 856.46875 555.855469 L 1155.730469 555.855469 M 1155.730469 545.125 L 856.46875 545.125 C 844.144531 545.125 834.101562 555.167969 834.101562 567.496094 L 834.101562 866.757812 C 834.101562 879.085938 844.144531 889.128906 856.46875 889.128906 L 1155.730469 889.128906 C 1168.058594 889.128906 1178.101562 879.085938 1178.101562 866.757812 L 1178.101562 567.496094 C 1178.101562 555.167969 1168.058594 545.125 1155.730469 545.125 " fill-opacity="1" fill-rule="nonzero"/><path fill="rgb(13.328552%, 34.899902%, 89.019775%)" d="M 810.683594 1228.792969 L 511.421875 1228.792969 C 502.289062 1228.792969 494.757812 1221.257812 494.757812 1212.128906 L 494.757812 912.867188 C 494.757812 903.734375 502.289062 896.203125 511.421875 896.203125 L 810.453125 896.203125 C 819.585938 896.203125 827.117188 903.734375 827.117188 912.867188 L 827.117188 1211.898438 C 827.347656 1221.257812 819.8125 1228.792969 810.683594 1228.792969 " fill-opacity="1" fill-rule="nonzero"/><path fill="rgb(100%, 100%, 100%)" d="M 810.683594 901.222656 C 817.074219 901.222656 822.324219 906.472656 822.324219 912.867188 L 822.324219 1212.128906 C 822.324219 1218.519531 817.074219 1223.769531 810.683594 1223.769531 L 511.421875 1223.769531 C 505.027344 1223.769531 499.777344 1218.519531 499.777344 1212.128906 L 499.777344 912.867188 C 499.777344 906.472656 505.027344 901.222656 511.421875 901.222656 L 810.683594 901.222656 M 810.683594 890.496094 L 511.421875 890.496094 C 499.09375 890.496094 489.050781 900.539062 489.050781 912.867188 L 489.050781 1212.128906 C 489.050781 1224.453125 499.09375 1234.5 511.421875 1234.5 L 810.683594 1234.5 C 823.007812 1234.5 833.050781 1224.453125 833.050781 1212.128906 L 833.050781 912.867188 C 833.050781 900.539062 823.007812 890.496094 810.683594 890.496094 " fill-opacity="1" fill-rule="nonzero"/></svg>